<svg width="44" height="55" viewBox="0 0 44 55" fill="none" xmlns="http://www.w3.org/2000/svg">
<path fill-rule="evenodd" clip-rule="evenodd" d="M8.21484 7.61305C8.21484 3.40847 11.6233 0 15.8279 0H42.1536C42.8543 0 43.4224 0.56808 43.4224 1.26884V9.11385H20.9235C19.522 9.11385 18.3858 10.25 18.3858 11.6515V45.7698H9.48369C8.78293 45.7698 8.21484 45.2018 8.21484 44.501V7.61305Z" fill="#4073F7"/>
<path d="M27.8252 11.909C27.8252 11.5874 28.0859 11.3267 28.4075 11.3267H42.9649C43.2865 11.3267 43.5472 11.5874 43.5472 11.909V44.1202C43.5472 45.0112 43.0799 45.8369 42.3161 46.2956L29.7473 53.8445C28.9016 54.3524 27.8252 53.7432 27.8252 52.7567V11.909Z" fill="#011341"/>
<path fill-rule="evenodd" clip-rule="evenodd" d="M9.64778 0.0625C7.57336 1.42246 6.20326 3.7682 6.20326 6.43393V9.98768L1.27167 9.98768C0.569346 9.98769 0 9.41834 0 8.71602V1.33418C0 0.631858 0.569342 0.0625154 1.27166 0.0625142L9.64778 0.0625Z" fill="#011341"/>
</svg>
