<svg width="272" height="75" viewBox="0 0 272 75" fill="none" xmlns="http://www.w3.org/2000/svg">
<path fill-rule="evenodd" clip-rule="evenodd" d="M8.21484 17.613C8.21484 13.4085 11.6233 10 15.8279 10H42.1536C42.8543 10 43.4224 10.5681 43.4224 11.2688V19.1139H20.9235C19.522 19.1139 18.3858 20.25 18.3858 21.6515V55.7698H9.48369C8.78293 55.7698 8.21484 55.2018 8.21484 54.501V17.613Z" fill="#4073F7"/>
<path d="M27.8252 21.909C27.8252 21.5874 28.0859 21.3267 28.4075 21.3267H42.9649C43.2865 21.3267 43.5472 21.5874 43.5472 21.909V54.1202C43.5472 55.0112 43.0799 55.8369 42.3161 56.2956L29.7473 63.8445C28.9016 64.3524 27.8252 63.7432 27.8252 62.7567V21.909Z" fill="#011341"/>
<path fill-rule="evenodd" clip-rule="evenodd" d="M9.64778 10.0625C7.57336 11.4225 6.20326 13.7682 6.20326 16.4339V19.9877L1.27167 19.9877C0.569346 19.9877 0 19.4183 0 18.716V11.3342C0 10.6319 0.569342 10.0625 1.27166 10.0625L9.64778 10.0625Z" fill="#011341"/>
<g clip-path="url(#clip0_2621_10444)">
<path d="M73.0939 56.4149V22.4681H83.8321V56.4149H73.0939ZM61.5474 23.6228V14.2701H95.3787V23.6228H61.5474Z" fill="#011341"/>
<path d="M98.6103 56.4149V14.2701H109.349V56.4149H98.6103Z" fill="#011341"/>
<path d="M115.693 56.4149V14.2701H130.588L139.248 36.4972H140.402L149.005 14.2701H164.188V56.4149H153.565V20.4475L155.24 20.563L144.386 47.9282H134.629L123.718 20.563L125.507 20.4475V56.4149H115.693Z" fill="#011341"/>
<path d="M170.44 56.4149V14.2701H185.335L193.995 36.4972H195.149L203.751 14.2701H218.935V56.4149H208.312V20.4475L209.986 20.563L199.133 47.9282H189.376L178.464 20.563L180.254 20.4475V56.4149H170.44Z" fill="#011341"/>
<path d="M245.855 57.5696C242.006 57.5696 238.657 56.9153 235.809 55.6067C232.961 54.2596 230.594 52.5083 228.708 50.353C226.822 48.1592 225.417 45.7921 224.494 43.2519C223.57 40.7116 223.108 38.2484 223.108 35.8621V34.592C223.108 31.9363 223.589 29.3383 224.551 26.7981C225.514 24.2194 226.957 21.8908 228.881 19.8124C230.806 17.7341 233.173 16.0791 235.982 14.8474C238.83 13.6158 242.121 13 245.855 13C249.55 13 252.802 13.6158 255.611 14.8474C258.46 16.0791 260.846 17.7341 262.77 19.8124C264.695 21.8908 266.138 24.2194 267.1 26.7981C268.101 29.3383 268.601 31.9363 268.601 34.592V35.8621C268.601 38.2484 268.12 40.7116 267.158 43.2519C266.234 45.7921 264.829 48.1592 262.943 50.353C261.058 52.5083 258.691 54.2596 255.842 55.6067C252.994 56.9153 249.665 57.5696 245.855 57.5696ZM245.855 47.5241C247.702 47.5241 249.357 47.2162 250.82 46.6004C252.282 45.9846 253.533 45.1186 254.572 44.0024C255.611 42.8862 256.4 41.5969 256.939 40.1343C257.478 38.6333 257.748 37.0168 257.748 35.2848C257.748 33.4373 257.459 31.7631 256.882 30.262C256.343 28.761 255.554 27.4716 254.515 26.394C253.475 25.3163 252.224 24.4888 250.762 23.9115C249.299 23.3341 247.664 23.0455 245.855 23.0455C244.007 23.0455 242.352 23.3341 240.89 23.9115C239.427 24.4888 238.176 25.3163 237.137 26.394C236.098 27.4716 235.309 28.761 234.77 30.262C234.231 31.7631 233.962 33.4373 233.962 35.2848C233.962 37.0168 234.231 38.6333 234.77 40.1343C235.309 41.5969 236.098 42.8862 237.137 44.0024C238.176 45.1186 239.427 45.9846 240.89 46.6004C242.352 47.2162 244.007 47.5241 245.855 47.5241Z" fill="#011341"/>
</g>
<defs>
<clipPath id="clip0_2621_10444">
<rect width="207.054" height="66.5696" fill="white" transform="translate(61.5474 2)"/>
</clipPath>
</defs>
</svg>
